<?xml version="1.0" standalone="no"?>
<!DOCTYPE svg PUBLIC "-//W3C//DTD SVG 20010904//EN"
 "http://www.w3.org/TR/2001/REC-SVG-20010904/DTD/svg10.dtd">
<svg version="1.0" xmlns="http://www.w3.org/2000/svg"
 width="294.000000pt" height="300.000000pt" viewBox="0 0 294.000000 300.000000"
 preserveAspectRatio="xMidYMid meet">

<g transform="translate(0.000000,300.000000) scale(0.100000,-0.100000)"
fill="#000000" stroke="none">
<path d="M1315 2984 c-253 -37 -490 -130 -688 -271 -111 -79 -279 -249 -353
-358 -71 -104 -107 -172 -99 -185 3 -5 106 -86 228 -181 122 -94 227 -176 233
-181 8 -5 25 20 53 79 98 205 265 367 466 456 284 124 633 82 865 -104 l63
-51 210 210 210 210 -79 62 c-187 149 -377 240 -607 291 -70 16 -137 21 -282
24 -104 2 -203 1 -220 -1z"/>
<path d="M1500 1485 c0 -157 3 -284 8 -284 4 1 188 1 410 0 l403 -1 -5 -42
c-9 -71 -59 -184 -113 -258 -31 -42 -133 -143 -159 -158 -10 -6 -17 -12 -14
-14 3 -3 105 -82 228 -177 161 -125 228 -171 241 -166 22 7 126 127 185 215
39 58 115 201 136 255 23 59 35 91 36 100 1 6 14 57 28 115 53 219 63 392 37
593 l-15 107 -703 0 -703 0 0 -285z"/>
</g>
</svg>
