<?xml version="1.0" standalone="no"?>
<!DOCTYPE svg PUBLIC "-//W3C//DTD SVG 20010904//EN"
 "http://www.w3.org/TR/2001/REC-SVG-20010904/DTD/svg10.dtd">
<svg version="1.0" xmlns="http://www.w3.org/2000/svg"
 width="640.000000pt" height="640.000000pt" viewBox="0 0 640.000000 640.000000"
 preserveAspectRatio="xMidYMid meet">

<g transform="translate(0.000000,640.000000) scale(0.100000,-0.100000)"
fill="#000000" stroke="none">
<path d="M0 4078 l0 -2323 99 -48 c54 -26 103 -47 109 -47 6 0 12 -3 14 -8 1
-4 80 -45 173 -91 94 -47 186 -94 205 -106 19 -12 38 -23 43 -23 13 -2 480
-234 519 -259 21 -13 38 -21 38 -18 0 7 84 -36 91 -47 3 -5 17 -11 30 -13 13
-3 135 -60 271 -128 l246 -123 -4 50 c-3 28 -18 276 -34 551 -42 700 -89 1482
-100 1665 -5 85 -19 313 -30 505 -11 193 -24 391 -28 442 -4 50 -4 91 0 90 5
-2 1939 2072 2082 2232 l19 21 -1871 0 -1872 0 0 -2322z"/>
<path d="M4113 4233 c9 -2 25 -2 35 0 9 3 1 5 -18 5 -19 0 -27 -2 -17 -5z"/>
<path d="M4418 4233 c6 -2 18 -2 25 0 6 3 1 5 -13 5 -14 0 -19 -2 -12 -5z"/>
<path d="M2765 4218 c-70 -16 -190 -50 -200 -58 -5 -3 -26 -13 -45 -20 -19 -7
-48 -23 -65 -34 -16 -12 -48 -32 -72 -46 -74 -44 -263 -244 -263 -279 0 -6 -3
-11 -8 -11 -4 0 -16 -17 -26 -37 -10 -21 -24 -49 -31 -63 -6 -14 -22 -54 -34
-90 -13 -36 -27 -74 -32 -85 -33 -76 -46 -367 -21 -499 15 -82 69 -244 89
-267 7 -8 13 -21 13 -28 0 -14 17 -42 84 -136 111 -156 286 -287 456 -342 149
-48 163 -50 338 -47 176 3 249 10 258 25 3 5 12 9 21 9 24 0 157 59 221 98
109 67 247 195 300 277 61 95 86 154 142 330 29 91 38 373 16 485 -21 108 -34
161 -51 195 -8 17 -22 51 -31 78 -9 26 -21 47 -25 47 -5 0 -8 3 -7 8 2 7 -50
102 -62 112 -3 3 -24 27 -45 54 -54 67 -244 216 -276 216 -5 0 -9 5 -9 10 0 6
-4 10 -10 10 -5 0 -33 11 -62 24 -103 47 -220 69 -378 71 -80 1 -163 -2 -185
-7z m314 -384 c70 -17 189 -72 219 -101 10 -10 30 -27 45 -38 15 -11 27 -28
27 -39 0 -11 3 -16 7 -13 3 4 26 -23 50 -59 24 -37 41 -69 39 -72 -3 -2 3 -17
12 -31 45 -66 69 -240 51 -380 -7 -53 -16 -100 -21 -106 -4 -5 -8 -17 -8 -26
0 -10 -7 -30 -14 -46 -8 -15 -17 -35 -20 -43 -3 -8 -25 -45 -48 -81 -66 -102
-157 -174 -278 -218 -86 -31 -248 -40 -335 -18 -63 16 -126 38 -135 48 -3 3
-22 13 -42 22 -21 10 -38 23 -38 29 0 6 -3 9 -6 6 -14 -14 -130 120 -163 187
-18 39 -38 78 -43 88 -21 42 -50 224 -45 287 6 74 31 199 45 227 6 10 25 48
43 85 63 130 196 239 349 286 83 26 218 28 309 6z"/>
<path d="M3294 3220 c0 -85 2 -120 3 -77 2 42 2 112 0 155 -1 42 -3 7 -3 -78z"/>
<path d="M4035 4220 c-3 -6 1 -7 9 -4 18 7 21 14 7 14 -6 0 -13 -4 -16 -10z"/>
<path d="M4507 4219 c7 -7 15 -10 18 -7 3 3 -2 9 -12 12 -14 6 -15 5 -6 -5z"/>
<path d="M5028 4205 c-31 -5 -60 -13 -64 -17 -4 -5 -19 -8 -33 -8 -28 0 -116
-42 -141 -68 -8 -8 -10 -12 -4 -8 7 3 14 -1 18 -9 3 -8 11 -15 18 -15 7 0 49
-36 92 -79 l79 -78 -130 -132 c-71 -72 -134 -131 -141 -131 -7 0 -40 26 -73
57 -86 82 -85 82 -99 20 -13 -56 -6 -163 14 -232 2 -5 4 -13 5 -18 2 -12 55
-111 71 -132 54 -71 154 -154 239 -198 50 -26 100 -47 111 -47 10 0 21 -4 24
-9 3 -5 29 -16 58 -26 48 -15 94 -35 202 -86 21 -10 44 -16 50 -12 6 3 8 3 4
-1 -6 -8 26 -44 63 -70 54 -38 79 -190 41 -247 -24 -38 -79 -87 -105 -95 -12
-4 -25 -11 -29 -17 -11 -18 -208 -14 -242 6 -30 16 -30 16 -44 -13 -8 -17 -18
-30 -23 -30 -5 0 -9 -7 -9 -15 0 -8 -3 -15 -7 -15 -5 0 -33 -23 -63 -51 -66
-60 -77 -69 -85 -69 -6 0 -24 -13 -56 -43 -20 -18 -20 -18 3 -36 32 -25 141
-74 213 -97 85 -26 295 -27 380 0 143 44 235 95 299 165 17 19 39 43 48 52 20
22 53 83 85 159 20 49 23 72 23 198 0 109 -4 153 -16 180 -8 21 -21 51 -28 67
-29 67 -40 85 -83 134 -25 28 -49 48 -55 45 -6 -4 -8 -2 -4 4 3 6 -8 21 -26
33 -18 13 -35 26 -38 29 -3 3 -23 14 -45 25 -22 11 -42 22 -45 25 -7 8 -90 46
-120 55 -14 4 -38 13 -55 20 -16 7 -55 21 -85 30 -30 10 -61 22 -67 28 -7 5
-13 6 -13 3 0 -4 -13 2 -29 13 -16 12 -32 21 -36 21 -16 0 -95 44 -95 53 0 5
-8 17 -18 26 -49 45 -65 118 -38 181 22 54 94 110 140 110 14 0 28 5 31 10 3
6 33 10 65 10 32 0 62 -4 65 -10 3 -5 19 -10 34 -10 30 0 121 -71 121 -94 0
-7 9 -21 19 -30 11 -10 22 -29 26 -43 5 -21 10 -24 33 -19 15 4 50 18 77 30
28 13 61 27 75 31 54 15 150 68 150 83 0 8 -17 49 -37 90 -38 74 -143 202
-168 202 -7 0 -15 6 -18 13 -7 18 -99 65 -145 73 -20 4 -41 10 -47 14 -27 21
-229 31 -317 15z"/>
<path d="M4253 3883 c15 -2 39 -2 55 0 15 2 2 4 -28 4 -30 0 -43 -2 -27 -4z"/>
<path d="M3949 3793 c-13 -16 -12 -17 4 -4 9 7 17 15 17 17 0 8 -8 3 -21 -13z"/>
<path d="M4398 2573 c7 -3 16 -2 19 1 4 3 -2 6 -13 5 -11 0 -14 -3 -6 -6z"/>
<path d="M4228 2563 c23 -2 61 -2 85 0 23 2 4 4 -43 4 -47 0 -66 -2 -42 -4z"/>
<path d="M4670 2280 c-9 -6 -10 -10 -3 -10 6 0 15 5 18 10 8 12 4 12 -15 0z"/>
<path d="M4353 2203 c9 -2 23 -2 30 0 6 3 -1 5 -18 5 -16 0 -22 -2 -12 -5z"/>
<path d="M6085 192 c-165 -87 -313 -166 -330 -175 -28 -15 -12 -16 308 -17
l337 0 0 175 c0 96 -3 175 -7 175 -5 -1 -143 -72 -308 -158z"/>
</g>
</svg>
